<?xml version="1.0" encoding="utf-8"?>
<!-- Generator: Adobe Illustrator 19.0.0, SVG Export Plug-In . SVG Version: 6.00 Build 0)  -->
<svg version="1.1" id="Layer_1" xmlns="http://www.w3.org/2000/svg" xmlns:xlink="http://www.w3.org/1999/xlink" x="0px" y="0px"
	 viewBox="0 0 491.8 245.8" style="enable-background:new 0 0 491.8 245.8;" xml:space="preserve">
<style type="text/css">
	.st0{width:100%;height:100%;fill:#162126;}
	.st1{fill:#FFFFFF;}
</style>
<rect class="st0">
</rect>
<g>
	<g>
		<path class="st1" d="M276.2,13.1c5.7,0,9.9,2.9,9.9,8.2c0,5.2-4,8-9.7,8c-5.7,0-9.8-2.9-9.8-8.2C266.5,15.9,270.4,13.1,276.2,13.1
			z M276.1,25.3c4.2,0,6.9-1.5,6.9-4.1c0-2.4-2.4-4-6.6-4c-4.2,0-6.9,1.5-6.9,4.1C269.5,23.7,271.9,25.3,276.1,25.3z"/>
		<path class="st1" d="M281.3,33.6V50h-3.8V33.6H281.3z M275.1,33.6V50h-3.8V33.6H275.1z"/>
		<path class="st1" d="M281.3,55.5v16.5h-3.8V55.5H281.3z M275.1,55.5v16.5h-3.8V55.5H275.1z"/>
		<path class="st1" d="M280.9,86.1c-2.7,0-4.6-1.8-5.1-4.2c-0.6,2.4-2.4,4.2-4.8,4.2c-3.3,0-7-4.1-9.2-4.1c-1.4,0-2.4,0.9-2.4,2.7
			c0,1,0.2,1.9,0.4,2.5l-3.6,0.6c-0.3-0.7-0.7-2.1-0.7-3.8c0-4,2-6.9,5.7-6.9c3.7,0,6.9,3.9,9.3,3.9c2.3,0,3.4-1.7,3.4-4.5h3.6
			c0,0.5,0.1,0.9,0.1,1.3c0.3,2,1.5,3.2,3,3.2c2.8,0,6-3.9,9.2-3.9c4.1,0,6.2,3,6.2,7c0,1.5-0.4,2.9-0.7,3.6l-3.6-0.6
			c0.2-0.6,0.4-1.5,0.4-2.7c0-1.6-1.1-2.5-2.2-2.5C287.4,82,284.1,86.1,280.9,86.1z"/>
		<path class="st1" d="M285.5,95.8c0,1.5-1,2.6-2.6,2.6c-1.9,0-2.9-1.2-2.9-2.9c0-1.5,1-2.6,2.6-2.6
			C284.5,92.9,285.5,94.1,285.5,95.8z M271.9,95.8c0,1.5-1,2.6-2.6,2.6c-1.9,0-2.9-1.2-2.9-2.9c0-1.5,1-2.6,2.6-2.6
			C270.9,92.9,271.9,94.1,271.9,95.8z"/>
		<path class="st1" d="M285.5,107.1c0,1.5-1,2.6-2.6,2.6c-1.9,0-2.9-1.2-2.9-2.9c0-1.5,1-2.6,2.6-2.6
			C284.5,104.2,285.5,105.4,285.5,107.1z M271.9,107.1c0,1.5-1,2.6-2.6,2.6c-1.9,0-2.9-1.2-2.9-2.9c0-1.5,1-2.6,2.6-2.6
			C270.9,104.2,271.9,105.4,271.9,107.1z"/>
		<path class="st1" d="M285.5,118.5c0,1.5-1,2.6-2.6,2.6c-1.9,0-2.9-1.2-2.9-2.9c0-1.5,1-2.6,2.6-2.6
			C284.5,115.6,285.5,116.8,285.5,118.5z M271.9,118.5c0,1.5-1,2.6-2.6,2.6c-1.9,0-2.9-1.2-2.9-2.9c0-1.5,1-2.6,2.6-2.6
			C270.9,115.6,271.9,116.8,271.9,118.5z"/>
		<path class="st1" d="M285.5,129.8c0,1.5-1,2.6-2.6,2.6c-1.9,0-2.9-1.2-2.9-2.9c0-1.5,1-2.6,2.6-2.6
			C284.5,126.9,285.5,128.1,285.5,129.8z M271.9,129.8c0,1.5-1,2.6-2.6,2.6c-1.9,0-2.9-1.2-2.9-2.9c0-1.5,1-2.6,2.6-2.6
			C270.9,126.9,271.9,128.1,271.9,129.8z"/>
		<path class="st1" d="M285.5,141.2c0,1.5-1,2.6-2.6,2.6c-1.9,0-2.9-1.2-2.9-2.9c0-1.5,1-2.6,2.6-2.6
			C284.5,138.3,285.5,139.4,285.5,141.2z M271.9,141.2c0,1.5-1,2.6-2.6,2.6c-1.9,0-2.9-1.2-2.9-2.9c0-1.5,1-2.6,2.6-2.6
			C270.9,138.3,271.9,139.4,271.9,141.2z"/>
		<path class="st1" d="M285.5,152.5c0,1.5-1,2.6-2.6,2.6c-1.9,0-2.9-1.2-2.9-2.9c0-1.5,1-2.6,2.6-2.6
			C284.5,149.6,285.5,150.8,285.5,152.5z M271.9,152.5c0,1.5-1,2.6-2.6,2.6c-1.9,0-2.9-1.2-2.9-2.9c0-1.5,1-2.6,2.6-2.6
			C270.9,149.6,271.9,150.8,271.9,152.5z"/>
		<path class="st1" d="M285.5,163.8c0,1.5-1,2.6-2.6,2.6c-1.9,0-2.9-1.2-2.9-2.9c0-1.5,1-2.6,2.6-2.6
			C284.5,161,285.5,162.1,285.5,163.8z M271.9,163.8c0,1.5-1,2.6-2.6,2.6c-1.9,0-2.9-1.2-2.9-2.9c0-1.5,1-2.6,2.6-2.6
			C270.9,161,271.9,162.1,271.9,163.8z"/>
		<path class="st1" d="M285.5,175.2c0,1.5-1,2.6-2.6,2.6c-1.9,0-2.9-1.2-2.9-2.9c0-1.5,1-2.6,2.6-2.6
			C284.5,172.3,285.5,173.5,285.5,175.2z M271.9,175.2c0,1.5-1,2.6-2.6,2.6c-1.9,0-2.9-1.2-2.9-2.9c0-1.5,1-2.6,2.6-2.6
			C270.9,172.3,271.9,173.5,271.9,175.2z"/>
		<path class="st1" d="M285.5,186.5c0,1.5-1,2.6-2.6,2.6c-1.9,0-2.9-1.2-2.9-2.9c0-1.5,1-2.6,2.6-2.6
			C284.5,183.6,285.5,184.8,285.5,186.5z M271.9,186.5c0,1.5-1,2.6-2.6,2.6c-1.9,0-2.9-1.2-2.9-2.9c0-1.5,1-2.6,2.6-2.6
			C270.9,183.6,271.9,184.8,271.9,186.5z"/>
		<path class="st1" d="M285.5,197.9c0,1.5-1,2.6-2.6,2.6c-1.9,0-2.9-1.2-2.9-2.9c0-1.5,1-2.6,2.6-2.6
			C284.5,195,285.5,196.2,285.5,197.9z M271.9,197.9c0,1.5-1,2.6-2.6,2.6c-1.9,0-2.9-1.2-2.9-2.9c0-1.5,1-2.6,2.6-2.6
			C270.9,195,271.9,196.2,271.9,197.9z"/>
		<path class="st1" d="M285.5,209.2c0,1.5-1,2.6-2.6,2.6c-1.9,0-2.9-1.2-2.9-2.9c0-1.5,1-2.6,2.6-2.6
			C284.5,206.3,285.5,207.5,285.5,209.2z M271.9,209.2c0,1.5-1,2.6-2.6,2.6c-1.9,0-2.9-1.2-2.9-2.9c0-1.5,1-2.6,2.6-2.6
			C270.9,206.3,271.9,207.5,271.9,209.2z"/>
		<path class="st1" d="M285.5,209.2c0,1.5-1,2.6-2.6,2.6c-1.9,0-2.9-1.2-2.9-2.9c0-1.5,1-2.6,2.6-2.6
			C284.5,206.3,285.5,207.5,285.5,209.2z M271.9,209.2c0,1.5-1,2.6-2.6,2.6c-1.9,0-2.9-1.2-2.9-2.9c0-1.5,1-2.6,2.6-2.6
			C270.9,206.3,271.9,207.5,271.9,209.2z"/>
		<path class="st1" d="M269.4,217.5l6.8,8.7l6.8-8.7l3.1,2.6l-9.9,12.6l-9.9-12.6L269.4,217.5z"/>
	</g>
	<g>
		<path class="st1" d="M20.9,115.9h11.6l7.7,21.3c1.3,3.7,2.8,9.6,2.8,9.6s1.6-6,3.3-9.6l10.2-21.8h1.1l10.4,21.8
			c1.7,3.6,3.3,9.6,3.3,9.6s1.5-5.9,2.8-9.6l7.7-21.3h10.6l-19.3,53.6H72l-12-25.7c-1.4-3-3-7.9-3-7.9s-1.6,4.9-3.1,7.9l-12.4,25.7
			h-1.1L20.9,115.9z"/>
		<path class="st1" d="M118.7,115.5h0.9l24.3,53.6h-11.5l-2.5-6h-21.6l-2.5,6H95.3L118.7,115.5z M126.1,153.9l-3.8-9.2
			c-1.6-3.8-3.2-9.5-3.2-9.5s-1.6,5.8-3.1,9.5l-3.8,9.2H126.1z"/>
		<path class="st1" d="M198.3,169.1h-12.7l-8.8-13.5c-1,0.2-2.1,0.2-3.1,0.2h-3.8v13.2H159v-53.2h14.7c14.9,0,23.8,7.1,23.8,20.1
			c0,8.3-3.7,13.5-10.2,16.5L198.3,169.1z M173.4,146.4c8.9,0,12.8-2.8,12.8-10.3c0-7.5-4.1-10.5-12.8-10.5h-3.4v20.8H173.4z"/>
		<path class="st1" d="M254.1,169.1h-12.7l-8.8-13.5c-1,0.2-2.1,0.2-3.1,0.2h-3.8v13.2h-10.9v-53.2h14.7c14.9,0,23.8,7.1,23.8,20.1
			c0,8.3-3.7,13.5-10.2,16.5L254.1,169.1z M229.2,146.4c8.9,0,12.8-2.8,12.8-10.3c0-7.5-4.1-10.5-12.8-10.5h-3.4v20.8H229.2z"/>
		<path class="st1" d="M294,142.5c0-15.7,12.2-27.3,27.5-27.3c15.3,0,27.5,11.6,27.5,27.3s-12.2,27.3-27.5,27.3
			C306.2,169.8,294,158.2,294,142.5z M337.8,142.5c0-9.9-6.6-17.5-16.3-17.5c-9.7,0-16.3,7.6-16.3,17.5c0,9.9,6.6,17.5,16.3,17.5
			C331.2,160,337.8,152.5,337.8,142.5z"/>
		<path class="st1" d="M405.4,169.1h-12.7l-8.8-13.5c-1,0.2-2.1,0.2-3.1,0.2h-3.8v13.2h-10.9v-53.2h14.7c14.9,0,23.8,7.1,23.8,20.1
			c0,8.3-3.7,13.5-10.2,16.5L405.4,169.1z M380.5,146.4c8.9,0,12.8-2.8,12.8-10.3c0-7.5-4.1-10.5-12.8-10.5h-3.4v20.8H380.5z"/>
		<path class="st1" d="M417.1,162.6l6.2-3.8c1.2,2.1,2.3,3.9,4.9,3.9c2.5,0,4.1-1,4.1-4.8v-26.1h7.7v26.2c0,7.9-4.7,11.6-11.4,11.6
			C422.5,169.6,418.9,166.4,417.1,162.6z"/>
		<path class="st1" d="M444.2,161.8l6.2-3.6c1.6,2.7,3.8,4.7,7.6,4.7c3.2,0,5.2-1.6,5.2-3.8c0-2.6-2.1-3.6-5.6-5.1l-1.9-0.8
			c-5.5-2.4-9.2-5.3-9.2-11.6c0-5.7,4.4-10.1,11.2-10.1c4.9,0,8.4,1.7,10.9,6.1l-6,3.8c-1.3-2.4-2.7-3.3-4.9-3.3
			c-2.2,0-3.7,1.4-3.7,3.3c0,2.3,1.4,3.2,4.7,4.7l1.9,0.8c6.5,2.8,10.2,5.6,10.2,12c0,6.9-5.4,10.7-12.7,10.7
			C451.1,169.6,446.5,166.2,444.2,161.8z"/>
	</g>
</g>
</svg>
