<svg xmlns="http://www.w3.org/2000/svg" width="800" height="90" viewBox="0 0 800 90">
  <g fill="#ECEFF4" fill-rule="evenodd">
    <path d="M60.1899862 34.2052437C60.1829121 34.2264721 57.456962 42.4052603 55.12 47.3410405L34.45 90 32.63 90 0 .780346821 19.24.780346821 32.11 36.2861272C34.3179766 42.3932473 36.7854773 52.2651405 36.7899938 52.2832121 36.795102 52.2635906 39.3928059 42.2629166 42.25 36.2861272L59.28 0 61.1 0 78.39 36.2861272C81.2466954 42.2618734 83.8439913 52.2600999 83.8499896 52.2831969 83.8562018 52.2584232 86.3227747 42.3911694 88.53 36.2861272L101.27.780346821 118.95.780346821 86.84 90 85.02 90 65.13 47.3410405C62.7927236 42.4045963 60.1960521 34.2242717 60.1900106 34.2052356L60.1899862 34.2052437zM127 90L165.87 0 167.43 0 207.86 90 188.75 90 184.59 79.8979592 148.71 79.8979592 144.55 90 127 90zM166.389994 33.0612456C166.385572 33.0777554 163.787786 42.7750415 161.19 49.0670554L154.82 64.548105 178.09 64.548105 171.72 49.0670554C169.122027 42.7745884 166.394256 33.0763589 166.390005 33.0612422L166.389994 33.0612456zM281.93 61.9411765L300.26 90 279.2 90 264.64 67.2352941C262.95 67.5 261.13 67.6323529 259.44 67.6323529L253.2 67.6323529 253.2 90 235 90 235 0 259.44 0C284.14 0 298.96 12.0441176 298.96 34.0147059 298.96 48.0441176 292.85 56.9117647 281.93 61.9411765zM253.2 51.4852941L258.92 51.4852941C273.74 51.4852941 280.24 46.7205882 280.24 34.0147059 280.24 21.3088235 273.48 16.2794118 258.92 16.2794118L253.2 16.2794118 253.2 51.4852941zM377.93 61.9411765L396.26 90 375.2 90 360.64 67.2352941C358.95 67.5 357.13 67.6323529 355.44 67.6323529L349.2 67.6323529 349.2 90 331 90 331 0 355.44 0C380.14 0 394.96 12.0441176 394.96 34.0147059 394.96 48.0441176 388.85 56.9117647 377.93 61.9411765zM349.2 51.4852941L354.92 51.4852941C369.74 51.4852941 376.24 46.7205882 376.24 34.0147059 376.24 21.3088235 369.48 16.2794118 354.92 16.2794118L349.2 16.2794118 349.2 51.4852941z"/>
    <polygon points="432 90 432 0 450.529 0 450.529 90"/>
    <path d="M531 90C505.943182 90 486 70.9169054 486 45 486 19.0830946 505.943182 0 531 0 556.056818 0 576 19.0830946 576 45 576 70.9169054 556.056818 90 531 90zM531 73.8825215C546.852273 73.8825215 557.590909 61.3753582 557.590909 45 557.590909 28.6246418 546.852273 16.1174785 531 16.1174785 515.147727 16.1174785 504.409091 28.6246418 504.409091 45 504.409091 61.3753582 515.147727 73.8825215 531 73.8825215zM655.93 61.9411765L674.26 90 653.2 90 638.64 67.2352941C636.95 67.5 635.13 67.6323529 633.44 67.6323529L627.2 67.6323529 627.2 90 609 90 609 0 633.44 0C658.14 0 672.96 12.0441176 672.96 34.0147059 672.96 48.0441176 666.85 56.9117647 655.93 61.9411765zM627.2 51.4852941L632.92 51.4852941C647.74 51.4852941 654.24 46.7205882 654.24 34.0147059 654.24 21.3088235 647.48 16.2794118 632.92 16.2794118L627.2 16.2794118 627.2 51.4852941zM717.37 90C706.506 90 700.201 84.3599419 697 77.5529753L708.058 70.8432511C710.192 74.6357039 712.132 77.8447025 716.788 77.8447025 721.25 77.8447025 724.063 76.0943396 724.063 69.287373L724.063 23 737.643 23 737.643 69.4818578C737.643 83.5820029 729.398 90 717.37 90zM777.609856 90C765.063655 90 756.956879 84.0401722 753 76.2539455L764.002053 69.9096126C766.897331 74.6197991 770.661191 78.0803443 777.320329 78.0803443 782.917864 78.0803443 786.488706 75.2926829 786.488706 71.4476327 786.488706 66.8335725 782.821355 65.1994261 776.644764 62.507891L773.26694 61.0659971C763.519507 56.9325681 757.053388 51.7417504 757.053388 40.7833572 757.053388 30.6901004 764.774127 23 776.837782 23 785.427105 23 791.603696 25.9799139 796.043121 33.7661406L785.523614 40.4949785C783.207392 36.3615495 780.698152 34.7274032 776.837782 34.7274032 772.880903 34.7274032 770.371663 37.2266858 770.371663 40.4949785 770.371663 44.5322812 772.880903 46.1664275 778.671458 48.6657102L782.049281 50.107604C793.533881 55.010043 800 60.0086083 800 71.2553802 800 83.3672884 790.445585 90 777.609856 90z"/>
  </g>
</svg>
