<?xml version="1.0" encoding="UTF-8"?>
<svg width="1200px" height="500px" viewBox="0 0 1200 500" version="1.1" xmlns="http://www.w3.org/2000/svg" xmlns:xlink="http://www.w3.org/1999/xlink" style="background: #2E3440;">
    <!-- Generator: Sketch 49 (51002) - http://www.bohemiancoding.com/sketch -->
    <title>warriorjs-banner-dark</title>
    <desc>Created with Sketch.</desc>
    <defs>
        <path d="M11,15 C14.5852031,15 17.3148054,16.4584946 19.1888889,19.3755274 C21.0629723,22.2925603 22,26.4927058 22,31.97609 C22,37.4913543 21.0629723,41.7074397 19.1888889,44.6244726 C17.3148054,47.5415054 14.5852031,49 11,49 C7.41479689,49 4.68519456,47.5415054 2.81111111,44.6244726 C0.937027667,41.7074397 0,37.4913543 0,31.97609 C0,26.4927058 0.937027667,22.2925603 2.81111111,19.3755274 C4.68519456,16.4584946 7.41479689,15 11,15 Z M11,19 C6.33331,19 4,23.3257538 4,31.9773913 C4,40.6591738 6.33331,45 11,45 C15.66669,45 18,40.6591738 18,31.9773913 C18,23.3257538 15.66669,19 11,19 Z" id="path-1"></path>
        <path d="M10.9770992,29 C11.8320653,29 12.5496154,29.2900734 13.129771,29.870229 C13.7099266,30.4503846 14,31.1526676 14,31.9770992 C14,32.8320653 13.7099266,33.5496154 13.129771,34.129771 C12.5496154,34.7099266 11.8320653,35 10.9770992,35 C10.1221331,35 9.41221656,34.7099266 8.84732824,34.129771 C8.28243992,33.5496154 8,32.8320653 8,31.9770992 C8,31.1526676 8.28243992,30.4503846 8.84732824,29.870229 C9.41221656,29.2900734 10.1221331,29 10.9770992,29 Z" id="path-2"></path>
        <polygon id="path-3" points="58 40 33 40 33 35 58 35"></polygon>
        <polygon id="path-4" points="58 29 33 29 33 24 58 24"></polygon>
        <path d="M91,4.41152263 C85.1596514,4.41152263 82.4151679,6.16733498 82.7664671,9.67901235 L84.0838323,23.1769547 C84.1277447,23.5720184 84.1497006,24.1426574 84.1497006,24.8888889 C84.1497006,26.9958953 83.6447156,28.6090479 82.6347305,29.7283951 C81.6247454,30.8477422 80.0658788,31.6049363 77.9580838,32 C80.1097912,32.3950637 81.6796358,33.1303101 82.6676647,34.2057613 C83.6556936,35.2812125 84.1497006,36.8943651 84.1497006,39.0452675 C84.1497006,39.7914989 84.1277447,40.3840856 84.0838323,40.8230453 L82.7664671,54.3209877 C82.5908175,56.2524102 83.2494935,57.6131648 84.742515,58.4032922 C86.2355364,59.1934196 88.3213439,59.5884774 91,59.5884774 L91,64 C87.0478844,64 83.8203718,63.3196227 81.3173653,61.9588477 C78.8143587,60.5980728 77.5628743,58.2935691 77.5628743,55.0452675 C77.5628743,54.4746199 77.5848301,54.0356668 77.6287425,53.7283951 L79.011976,41.218107 C79.0558884,40.9108352 79.0778443,40.4718821 79.0778443,39.9012346 C79.0778443,37.969812 78.3533007,36.5432145 76.9041916,35.6213992 C75.4550826,34.6995839 72.8203784,34.2386831 69,34.2386831 L69,29.7613169 C72.8203784,29.7613169 75.4550826,29.31139 76.9041916,28.4115226 C78.3533007,27.5116553 79.0778443,26.0960316 79.0778443,24.1646091 C79.0778443,23.6378574 79.0558884,23.220852 79.011976,22.9135802 L77.6287425,10.2716049 C77.5848301,9.96433317 77.5628743,9.52538008 77.5628743,8.95473251 C77.5628743,5.70643095 78.8143587,3.40192724 81.3173653,2.04115226 C83.8203718,0.680377284 87.0478844,0 91,0 L91,4.41152263 Z" id="path-5"></path>
        <path d="M97,42.9382716 C97,41.5802401 97.4761857,40.4177003 98.4285714,39.4506173 C99.3809571,38.4835343 100.56107,38 101.968944,38 C103.418227,38 104.619043,38.4835343 105.571429,39.4506173 C106.523814,40.4177003 107,41.5802401 107,42.9382716 C107,44.3374556 106.523814,45.5308593 105.571429,46.5185185 C104.619043,47.5061778 103.418227,48 101.968944,48 C100.56107,48 99.3809571,47.5061778 98.4285714,46.5185185 C97.4761857,45.5308593 97,44.3374556 97,42.9382716 Z" id="path-6"></path>
        <path d="M97,21 C97,19.6419685 97.4761857,18.4691407 98.4285714,17.4814815 C99.3809571,16.4938222 100.56107,16 101.968944,16 C103.418227,16 104.619043,16.4835343 105.571429,17.4506173 C106.523814,18.4177003 107,19.600816 107,21 C107,22.4403364 106.523814,23.6337401 105.571429,24.5802469 C104.619043,25.5267537 103.418227,26 101.968944,26 C100.56107,26 99.3809571,25.5267537 98.4285714,24.5802469 C97.4761857,23.6337401 97,22.4403364 97,21 Z" id="path-7"></path>
        <path d="M117,42.9382716 C117,41.5802401 117.476186,40.4177003 118.428571,39.4506173 C119.380957,38.4835343 120.56107,38 121.968944,38 C123.418227,38 124.619043,38.4835343 125.571429,39.4506173 C126.523814,40.4177003 127,41.5802401 127,42.9382716 C127,44.3374556 126.523814,45.5308593 125.571429,46.5185185 C124.619043,47.5061778 123.418227,48 121.968944,48 C120.56107,48 119.380957,47.5061778 118.428571,46.5185185 C117.476186,45.5308593 117,44.3374556 117,42.9382716 Z" id="path-8"></path>
        <path d="M117,21 C117,19.6419685 117.476186,18.4691407 118.428571,17.4814815 C119.380957,16.4938222 120.56107,16 121.968944,16 C123.418227,16 124.619043,16.4835343 125.571429,17.4506173 C126.523814,18.4177003 127,19.600816 127,21 C127,22.4403364 126.523814,23.6337401 125.571429,24.5802469 C124.619043,25.5267537 123.418227,26 121.968944,26 C120.56107,26 119.380957,25.5267537 118.428571,24.5802469 C117.476186,23.6337401 117,22.4403364 117,21 Z" id="path-9"></path>
        <path d="M137,42.9382716 C137,41.5802401 137.476186,40.4177003 138.428571,39.4506173 C139.380957,38.4835343 140.56107,38 141.968944,38 C143.418227,38 144.619043,38.4835343 145.571429,39.4506173 C146.523814,40.4177003 147,41.5802401 147,42.9382716 C147,44.3374556 146.523814,45.5308593 145.571429,46.5185185 C144.619043,47.5061778 143.418227,48 141.968944,48 C140.56107,48 139.380957,47.5061778 138.428571,46.5185185 C137.476186,45.5308593 137,44.3374556 137,42.9382716 Z" id="path-10"></path>
        <path d="M137,21 C137,19.6419685 137.476186,18.4691407 138.428571,17.4814815 C139.380957,16.4938222 140.56107,16 141.968944,16 C143.418227,16 144.619043,16.4835343 145.571429,17.4506173 C146.523814,18.4177003 147,19.600816 147,21 C147,22.4403364 146.523814,23.6337401 145.571429,24.5802469 C144.619043,25.5267537 143.418227,26 141.968944,26 C140.56107,26 139.380957,25.5267537 138.428571,24.5802469 C137.476186,23.6337401 137,22.4403364 137,21 Z" id="path-11"></path>
        <path d="M157,42.9382716 C157,41.5802401 157.476186,40.4177003 158.428571,39.4506173 C159.380957,38.4835343 160.56107,38 161.968944,38 C163.418227,38 164.619043,38.4835343 165.571429,39.4506173 C166.523814,40.4177003 167,41.5802401 167,42.9382716 C167,44.3374556 166.523814,45.5308593 165.571429,46.5185185 C164.619043,47.5061778 163.418227,48 161.968944,48 C160.56107,48 159.380957,47.5061778 158.428571,46.5185185 C157.476186,45.5308593 157,44.3374556 157,42.9382716 Z" id="path-12"></path>
        <path d="M157,21 C157,19.6419685 157.476186,18.4691407 158.428571,17.4814815 C159.380957,16.4938222 160.56107,16 161.968944,16 C163.418227,16 164.619043,16.4835343 165.571429,17.4506173 C166.523814,18.4177003 167,19.600816 167,21 C167,22.4403364 166.523814,23.6337401 165.571429,24.5802469 C164.619043,25.5267537 163.418227,26 161.968944,26 C160.56107,26 159.380957,25.5267537 158.428571,24.5802469 C157.476186,23.6337401 157,22.4403364 157,21 Z" id="path-13"></path>
        <path d="M177,42.9382716 C177,41.5802401 177.476186,40.4177003 178.428571,39.4506173 C179.380957,38.4835343 180.56107,38 181.968944,38 C183.418227,38 184.619043,38.4835343 185.571429,39.4506173 C186.523814,40.4177003 187,41.5802401 187,42.9382716 C187,44.3374556 186.523814,45.5308593 185.571429,46.5185185 C184.619043,47.5061778 183.418227,48 181.968944,48 C180.56107,48 179.380957,47.5061778 178.428571,46.5185185 C177.476186,45.5308593 177,44.3374556 177,42.9382716 Z" id="path-14"></path>
        <path d="M177,21 C177,19.6419685 177.476186,18.4691407 178.428571,17.4814815 C179.380957,16.4938222 180.56107,16 181.968944,16 C183.418227,16 184.619043,16.4835343 185.571429,17.4506173 C186.523814,18.4177003 187,19.600816 187,21 C187,22.4403364 186.523814,23.6337401 185.571429,24.5802469 C184.619043,25.5267537 183.418227,26 181.968944,26 C180.56107,26 179.380957,25.5267537 178.428571,24.5802469 C177.476186,23.6337401 177,22.4403364 177,21 Z" id="path-15"></path>
        <path d="M196,42.9382716 C196,41.5802401 196.476186,40.4177003 197.428571,39.4506173 C198.380957,38.4835343 199.56107,38 200.968944,38 C202.418227,38 203.619043,38.4835343 204.571429,39.4506173 C205.523814,40.4177003 206,41.5802401 206,42.9382716 C206,44.3374556 205.523814,45.5308593 204.571429,46.5185185 C203.619043,47.5061778 202.418227,48 200.968944,48 C199.56107,48 198.380957,47.5061778 197.428571,46.5185185 C196.476186,45.5308593 196,44.3374556 196,42.9382716 Z" id="path-16"></path>
        <path d="M196,21 C196,19.6419685 196.476186,18.4691407 197.428571,17.4814815 C198.380957,16.4938222 199.56107,16 200.968944,16 C202.418227,16 203.619043,16.4835343 204.571429,17.4506173 C205.523814,18.4177003 206,19.600816 206,21 C206,22.4403364 205.523814,23.6337401 204.571429,24.5802469 C203.619043,25.5267537 202.418227,26 200.968944,26 C199.56107,26 198.380957,25.5267537 197.428571,24.5802469 C196.476186,23.6337401 196,22.4403364 196,21 Z" id="path-17"></path>
        <path d="M216,42.9382716 C216,41.5802401 216.476186,40.4177003 217.428571,39.4506173 C218.380957,38.4835343 219.56107,38 220.968944,38 C222.418227,38 223.619043,38.4835343 224.571429,39.4506173 C225.523814,40.4177003 226,41.5802401 226,42.9382716 C226,44.3374556 225.523814,45.5308593 224.571429,46.5185185 C223.619043,47.5061778 222.418227,48 220.968944,48 C219.56107,48 218.380957,47.5061778 217.428571,46.5185185 C216.476186,45.5308593 216,44.3374556 216,42.9382716 Z" id="path-18"></path>
        <path d="M216,21 C216,19.6419685 216.476186,18.4691407 217.428571,17.4814815 C218.380957,16.4938222 219.56107,16 220.968944,16 C222.418227,16 223.619043,16.4835343 224.571429,17.4506173 C225.523814,18.4177003 226,19.600816 226,21 C226,22.4403364 225.523814,23.6337401 224.571429,24.5802469 C223.619043,25.5267537 222.418227,26 220.968944,26 C219.56107,26 218.380957,25.5267537 217.428571,24.5802469 C216.476186,23.6337401 216,22.4403364 216,21 Z" id="path-19"></path>
        <path d="M236,42.9382716 C236,41.5802401 236.476186,40.4177003 237.428571,39.4506173 C238.380957,38.4835343 239.56107,38 240.968944,38 C242.418227,38 243.619043,38.4835343 244.571429,39.4506173 C245.523814,40.4177003 246,41.5802401 246,42.9382716 C246,44.3374556 245.523814,45.5308593 244.571429,46.5185185 C243.619043,47.5061778 242.418227,48 240.968944,48 C239.56107,48 238.380957,47.5061778 237.428571,46.5185185 C236.476186,45.5308593 236,44.3374556 236,42.9382716 Z" id="path-20"></path>
        <path d="M236,21 C236,19.6419685 236.476186,18.4691407 237.428571,17.4814815 C238.380957,16.4938222 239.56107,16 240.968944,16 C242.418227,16 243.619043,16.4835343 244.571429,17.4506173 C245.523814,18.4177003 246,19.600816 246,21 C246,22.4403364 245.523814,23.6337401 244.571429,24.5802469 C243.619043,25.5267537 242.418227,26 240.968944,26 C239.56107,26 238.380957,25.5267537 237.428571,24.5802469 C236.476186,23.6337401 236,22.4403364 236,21 Z" id="path-21"></path>
        <path d="M256,42.9382716 C256,41.5802401 256.476186,40.4177003 257.428571,39.4506173 C258.380957,38.4835343 259.56107,38 260.968944,38 C262.418227,38 263.619043,38.4835343 264.571429,39.4506173 C265.523814,40.4177003 266,41.5802401 266,42.9382716 C266,44.3374556 265.523814,45.5308593 264.571429,46.5185185 C263.619043,47.5061778 262.418227,48 260.968944,48 C259.56107,48 258.380957,47.5061778 257.428571,46.5185185 C256.476186,45.5308593 256,44.3374556 256,42.9382716 Z" id="path-22"></path>
        <path d="M256,21 C256,19.6419685 256.476186,18.4691407 257.428571,17.4814815 C258.380957,16.4938222 259.56107,16 260.968944,16 C262.418227,16 263.619043,16.4835343 264.571429,17.4506173 C265.523814,18.4177003 266,19.600816 266,21 C266,22.4403364 265.523814,23.6337401 264.571429,24.5802469 C263.619043,25.5267537 262.418227,26 260.968944,26 C259.56107,26 258.380957,25.5267537 257.428571,24.5802469 C256.476186,23.6337401 256,22.4403364 256,21 Z" id="path-23"></path>
        <path d="M276,42.9382716 C276,41.5802401 276.476186,40.4177003 277.428571,39.4506173 C278.380957,38.4835343 279.56107,38 280.968944,38 C282.418227,38 283.619043,38.4835343 284.571429,39.4506173 C285.523814,40.4177003 286,41.5802401 286,42.9382716 C286,44.3374556 285.523814,45.5308593 284.571429,46.5185185 C283.619043,47.5061778 282.418227,48 280.968944,48 C279.56107,48 278.380957,47.5061778 277.428571,46.5185185 C276.476186,45.5308593 276,44.3374556 276,42.9382716 Z" id="path-24"></path>
        <path d="M276,21 C276,19.6419685 276.476186,18.4691407 277.428571,17.4814815 C278.380957,16.4938222 279.56107,16 280.968944,16 C282.418227,16 283.619043,16.4835343 284.571429,17.4506173 C285.523814,18.4177003 286,19.600816 286,21 C286,22.4403364 285.523814,23.6337401 284.571429,24.5802469 C283.619043,25.5267537 282.418227,26 280.968944,26 C279.56107,26 278.380957,25.5267537 277.428571,24.5802469 C276.476186,23.6337401 276,22.4403364 276,21 Z" id="path-25"></path>
        <polygon id="path-26" points="320 29.5757576 320 34.4812834 298.541176 48 296 44.4634581 315.934118 32.0285205 296 19.6506239 298.315294 16"></polygon>
    </defs>
    <g id="warriorjs-banner-dark" stroke="none" stroke-width="1" fill="none" fill-rule="evenodd">
        <g id="Text-(Dark)" transform="translate(200.000000, 202.000000)" fill="#ECEFF4">
            <path d="M60.1899862,34.2052437 C60.1829121,34.2264721 57.456962,42.4052603 55.12,47.3410405 L34.45,90 L32.63,90 L0,0.780346821 L19.24,0.780346821 L32.11,36.2861272 C34.3179766,42.3932473 36.7854773,52.2651405 36.7899938,52.2832121 C36.795102,52.2635906 39.3928059,42.2629166 42.25,36.2861272 L59.28,0 L61.1,0 L78.39,36.2861272 C81.2466954,42.2618734 83.8439913,52.2600999 83.8499896,52.2831969 C83.8562018,52.2584232 86.3227747,42.3911694 88.53,36.2861272 L101.27,0.780346821 L118.95,0.780346821 L86.84,90 L85.02,90 L65.13,47.3410405 C62.7927236,42.4045963 60.1960521,34.2242717 60.1900106,34.2052356 L60.1899862,34.2052437 Z" id="Path"></path>
            <path d="M127,90 L165.87,0 L167.43,0 L207.86,90 L188.75,90 L184.59,79.8979592 L148.71,79.8979592 L144.55,90 L127,90 Z M166.389994,33.0612456 C166.385572,33.0777554 163.787786,42.7750415 161.19,49.0670554 L154.82,64.548105 L178.09,64.548105 L171.72,49.0670554 C169.122027,42.7745884 166.394256,33.0763589 166.390005,33.0612422 L166.389994,33.0612456 Z" id="Combined-Shape"></path>
            <path d="M281.93,61.9411765 L300.26,90 L279.2,90 L264.64,67.2352941 C262.95,67.5 261.13,67.6323529 259.44,67.6323529 L253.2,67.6323529 L253.2,90 L235,90 L235,0 L259.44,0 C284.14,0 298.96,12.0441176 298.96,34.0147059 C298.96,48.0441176 292.85,56.9117647 281.93,61.9411765 Z M253.2,51.4852941 L258.92,51.4852941 C273.74,51.4852941 280.24,46.7205882 280.24,34.0147059 C280.24,21.3088235 273.48,16.2794118 258.92,16.2794118 L253.2,16.2794118 L253.2,51.4852941 Z" id="Combined-Shape"></path>
            <path d="M377.93,61.9411765 L396.26,90 L375.2,90 L360.64,67.2352941 C358.95,67.5 357.13,67.6323529 355.44,67.6323529 L349.2,67.6323529 L349.2,90 L331,90 L331,0 L355.44,0 C380.14,0 394.96,12.0441176 394.96,34.0147059 C394.96,48.0441176 388.85,56.9117647 377.93,61.9411765 Z M349.2,51.4852941 L354.92,51.4852941 C369.74,51.4852941 376.24,46.7205882 376.24,34.0147059 C376.24,21.3088235 369.48,16.2794118 354.92,16.2794118 L349.2,16.2794118 L349.2,51.4852941 Z" id="Combined-Shape"></path>
            <path d="M531,90 C505.943182,90 486,70.9169054 486,45 C486,19.0830946 505.943182,0 531,0 C556.056818,0 576,19.0830946 576,45 C576,70.9169054 556.056818,90 531,90 Z M531,73.8825215 C546.852273,73.8825215 557.590909,61.3753582 557.590909,45 C557.590909,28.6246418 546.852273,16.1174785 531,16.1174785 C515.147727,16.1174785 504.409091,28.6246418 504.409091,45 C504.409091,61.3753582 515.147727,73.8825215 531,73.8825215 Z" id="Combined-Shape"></path>
            <path d="M655.93,61.9411765 L674.26,90 L653.2,90 L638.64,67.2352941 C636.95,67.5 635.13,67.6323529 633.44,67.6323529 L627.2,67.6323529 L627.2,90 L609,90 L609,0 L633.44,0 C658.14,0 672.96,12.0441176 672.96,34.0147059 C672.96,48.0441176 666.85,56.9117647 655.93,61.9411765 Z M627.2,51.4852941 L632.92,51.4852941 C647.74,51.4852941 654.24,46.7205882 654.24,34.0147059 C654.24,21.3088235 647.48,16.2794118 632.92,16.2794118 L627.2,16.2794118 L627.2,51.4852941 Z" id="Combined-Shape"></path>
            <path d="M717.37,90 C706.506,90 700.201,84.3599419 697,77.5529753 L708.058,70.8432511 C710.192,74.6357039 712.132,77.8447025 716.788,77.8447025 C721.25,77.8447025 724.063,76.0943396 724.063,69.287373 L724.063,23 L737.643,23 L737.643,69.4818578 C737.643,83.5820029 729.398,90 717.37,90 Z" id="Path"></path>
            <path d="M777.609856,90 C765.063655,90 756.956879,84.0401722 753,76.2539455 L764.002053,69.9096126 C766.897331,74.6197991 770.661191,78.0803443 777.320329,78.0803443 C782.917864,78.0803443 786.488706,75.2926829 786.488706,71.4476327 C786.488706,66.8335725 782.821355,65.1994261 776.644764,62.507891 L773.26694,61.0659971 C763.519507,56.9325681 757.053388,51.7417504 757.053388,40.7833572 C757.053388,30.6901004 764.774127,23 776.837782,23 C785.427105,23 791.603696,25.9799139 796.043121,33.7661406 L785.523614,40.4949785 C783.207392,36.3615495 780.698152,34.7274032 776.837782,34.7274032 C772.880903,34.7274032 770.371663,37.2266858 770.371663,40.4949785 C770.371663,44.5322812 772.880903,46.1664275 778.671458,48.6657102 L782.049281,50.107604 C793.533881,55.010043 800,60.0086083 800,71.2553802 C800,83.3672884 790.445585,90 777.609856,90 Z" id="Path"></path>
        </g>
        <g id="Long-Sword-(Dark)" transform="translate(642.000000, 250.000000) rotate(90.000000) translate(-642.000000, -250.000000) translate(482.000000, 218.000000)">
            <g id="Combined-Shape">
                <use fill="#EBEFF5" xlink:href="#path-1"></use>
                <use fill="#8FBCBB" xlink:href="#path-1"></use>
            </g>
            <g id="Path">
                <use fill="#EBEFF5" xlink:href="#path-2"></use>
                <use fill="#8FBCBB" xlink:href="#path-2"></use>
            </g>
            <g id="Path">
                <use fill="#EBEFF5" xlink:href="#path-3"></use>
                <use fill="#8FBCBB" xlink:href="#path-3"></use>
            </g>
            <g id="Path">
                <use fill="#EBEFF5" xlink:href="#path-4"></use>
                <use fill="#8FBCBB" xlink:href="#path-4"></use>
            </g>
            <g id="Path">
                <use fill="#EBEFF5" xlink:href="#path-5"></use>
                <use fill="#8FBCBB" xlink:href="#path-5"></use>
            </g>
            <g id="Path">
                <use fill="#EBEFF5" xlink:href="#path-6"></use>
                <use fill="#8FBCBB" xlink:href="#path-6"></use>
            </g>
            <g id="Path">
                <use fill="#EBEFF5" xlink:href="#path-7"></use>
                <use fill="#8FBCBB" xlink:href="#path-7"></use>
            </g>
            <g id="Path">
                <use fill="#EBEFF5" xlink:href="#path-8"></use>
                <use fill="#8FBCBB" xlink:href="#path-8"></use>
            </g>
            <g id="Path">
                <use fill="#EBEFF5" xlink:href="#path-9"></use>
                <use fill="#8FBCBB" xlink:href="#path-9"></use>
            </g>
            <g id="Path">
                <use fill="#EBEFF5" xlink:href="#path-10"></use>
                <use fill="#8FBCBB" xlink:href="#path-10"></use>
            </g>
            <g id="Path">
                <use fill="#EBEFF5" xlink:href="#path-11"></use>
                <use fill="#8FBCBB" xlink:href="#path-11"></use>
            </g>
            <g id="Path">
                <use fill="#EBEFF5" xlink:href="#path-12"></use>
                <use fill="#8FBCBB" xlink:href="#path-12"></use>
            </g>
            <g id="Path">
                <use fill="#EBEFF5" xlink:href="#path-13"></use>
                <use fill="#8FBCBB" xlink:href="#path-13"></use>
            </g>
            <g id="Path">
                <use fill="#EBEFF5" xlink:href="#path-14"></use>
                <use fill="#8FBCBB" xlink:href="#path-14"></use>
            </g>
            <g id="Path">
                <use fill="#EBEFF5" xlink:href="#path-15"></use>
                <use fill="#8FBCBB" xlink:href="#path-15"></use>
            </g>
            <g id="Path">
                <use fill="#EBEFF5" xlink:href="#path-16"></use>
                <use fill="#8FBCBB" xlink:href="#path-16"></use>
            </g>
            <g id="Path">
                <use fill="#EBEFF5" xlink:href="#path-17"></use>
                <use fill="#8FBCBB" xlink:href="#path-17"></use>
            </g>
            <g id="Path">
                <use fill="#EBEFF5" xlink:href="#path-18"></use>
                <use fill="#8FBCBB" xlink:href="#path-18"></use>
            </g>
            <g id="Path">
                <use fill="#EBEFF5" xlink:href="#path-19"></use>
                <use fill="#8FBCBB" xlink:href="#path-19"></use>
            </g>
            <g id="Path">
                <use fill="#EBEFF5" xlink:href="#path-20"></use>
                <use fill="#8FBCBB" xlink:href="#path-20"></use>
            </g>
            <g id="Path">
                <use fill="#EBEFF5" xlink:href="#path-21"></use>
                <use fill="#8FBCBB" xlink:href="#path-21"></use>
            </g>
            <g id="Path">
                <use fill="#EBEFF5" xlink:href="#path-22"></use>
                <use fill="#8FBCBB" xlink:href="#path-22"></use>
            </g>
            <g id="Path">
                <use fill="#EBEFF5" xlink:href="#path-23"></use>
                <use fill="#8FBCBB" xlink:href="#path-23"></use>
            </g>
            <g id="Path">
                <use fill="#EBEFF5" xlink:href="#path-24"></use>
                <use fill="#8FBCBB" xlink:href="#path-24"></use>
            </g>
            <g id="Path">
                <use fill="#EBEFF5" xlink:href="#path-25"></use>
                <use fill="#8FBCBB" xlink:href="#path-25"></use>
            </g>
            <g id="Path">
                <use fill="#EBEFF5" xlink:href="#path-26"></use>
                <use fill="#8FBCBB" xlink:href="#path-26"></use>
            </g>
        </g>
    </g>
</svg>