<svg xmlns="http://www.w3.org/2000/svg" xmlns:xlink="http://www.w3.org/1999/xlink" width="800" height="320" viewBox="0 0 800 320"><defs><path id="a" d="M11 15c3.585 0 6.315 1.458 8.189 4.376C21.063 22.293 22 26.493 22 31.976c0 5.515-.937 9.731-2.811 12.648C17.315 47.542 14.585 49 11 49s-6.315-1.458-8.189-4.376C.937 41.707 0 37.491 0 31.976c0-5.483.937-9.683 2.811-12.6C4.685 16.458 7.415 15 11 15zm0 4c-4.667 0-7 4.326-7 12.977C4 40.66 6.333 45 11 45s7-4.34 7-13.023C18 23.326 15.667 19 11 19z"/><path id="b" d="M10.977 29c.855 0 1.573.29 2.153.87.58.58.87 1.283.87 2.107 0 .855-.29 1.573-.87 2.153-.58.58-1.298.87-2.153.87s-1.565-.29-2.13-.87C8.282 33.55 8 32.832 8 31.977c0-.824.282-1.527.847-2.107.565-.58 1.275-.87 2.13-.87z"/><path id="c" d="M58 40H33v-5h25z"/><path id="d" d="M58 29H33v-5h25z"/><path id="e" d="M91 4.412c-5.84 0-8.585 1.755-8.234 5.267l1.318 13.498c.044.395.066.966.066 1.712 0 2.107-.505 3.72-1.515 4.84-1.01 1.119-2.57 1.876-4.677 2.271 2.152.395 3.722 1.13 4.71 2.206.988 1.075 1.482 2.688 1.482 4.84 0 .745-.022 1.338-.066 1.777l-1.318 13.498c-.175 1.931.483 3.292 1.977 4.082 1.493.79 3.578 1.185 6.257 1.185V64c-3.952 0-7.18-.68-9.683-2.041-2.503-1.36-3.754-3.665-3.754-6.914 0-.57.022-1.01.066-1.317l1.383-12.51c.044-.307.066-.746.066-1.317 0-1.931-.725-3.358-2.174-4.28C75.455 34.7 72.82 34.24 69 34.24v-4.48c3.82 0 6.455-.45 7.904-1.35 1.45-.9 2.174-2.315 2.174-4.246 0-.527-.022-.944-.066-1.251l-1.383-12.642c-.044-.308-.066-.747-.066-1.317 0-3.249 1.251-5.553 3.754-6.914C83.82.681 87.047 0 91 0v4.412z"/><path id="f" d="M97 42.938c0-1.358.476-2.52 1.429-3.487.952-.967 2.132-1.451 3.54-1.451 1.45 0 2.65.484 3.602 1.45.953.968 1.429 2.13 1.429 3.488 0 1.4-.476 2.593-1.429 3.58-.952.988-2.153 1.482-3.602 1.482-1.408 0-2.588-.494-3.54-1.481-.953-.988-1.429-2.182-1.429-3.58z"/><path id="g" d="M97 21c0-1.358.476-2.53 1.429-3.519.952-.987 2.132-1.481 3.54-1.481 1.45 0 2.65.484 3.602 1.45.953.968 1.429 2.15 1.429 3.55 0 1.44-.476 2.634-1.429 3.58-.952.947-2.153 1.42-3.602 1.42-1.408 0-2.588-.473-3.54-1.42C97.476 23.634 97 22.44 97 21z"/><path id="h" d="M117 42.938c0-1.358.476-2.52 1.429-3.487.952-.967 2.132-1.451 3.54-1.451 1.45 0 2.65.484 3.602 1.45.953.968 1.429 2.13 1.429 3.488 0 1.4-.476 2.593-1.429 3.58-.952.988-2.153 1.482-3.602 1.482-1.408 0-2.588-.494-3.54-1.481-.953-.988-1.429-2.182-1.429-3.58z"/><path id="i" d="M117 21c0-1.358.476-2.53 1.429-3.519.952-.987 2.132-1.481 3.54-1.481 1.45 0 2.65.484 3.602 1.45.953.968 1.429 2.15 1.429 3.55 0 1.44-.476 2.634-1.429 3.58-.952.947-2.153 1.42-3.602 1.42-1.408 0-2.588-.473-3.54-1.42-.953-.946-1.429-2.14-1.429-3.58z"/><path id="j" d="M137 42.938c0-1.358.476-2.52 1.429-3.487.952-.967 2.132-1.451 3.54-1.451 1.45 0 2.65.484 3.602 1.45.953.968 1.429 2.13 1.429 3.488 0 1.4-.476 2.593-1.429 3.58-.952.988-2.153 1.482-3.602 1.482-1.408 0-2.588-.494-3.54-1.481-.953-.988-1.429-2.182-1.429-3.58z"/><path id="k" d="M137 21c0-1.358.476-2.53 1.429-3.519.952-.987 2.132-1.481 3.54-1.481 1.45 0 2.65.484 3.602 1.45.953.968 1.429 2.15 1.429 3.55 0 1.44-.476 2.634-1.429 3.58-.952.947-2.153 1.42-3.602 1.42-1.408 0-2.588-.473-3.54-1.42-.953-.946-1.429-2.14-1.429-3.58z"/><path id="l" d="M157 42.938c0-1.358.476-2.52 1.429-3.487.952-.967 2.132-1.451 3.54-1.451 1.45 0 2.65.484 3.602 1.45.953.968 1.429 2.13 1.429 3.488 0 1.4-.476 2.593-1.429 3.58-.952.988-2.153 1.482-3.602 1.482-1.408 0-2.588-.494-3.54-1.481-.953-.988-1.429-2.182-1.429-3.58z"/><path id="m" d="M157 21c0-1.358.476-2.53 1.429-3.519.952-.987 2.132-1.481 3.54-1.481 1.45 0 2.65.484 3.602 1.45.953.968 1.429 2.15 1.429 3.55 0 1.44-.476 2.634-1.429 3.58-.952.947-2.153 1.42-3.602 1.42-1.408 0-2.588-.473-3.54-1.42-.953-.946-1.429-2.14-1.429-3.58z"/><path id="n" d="M177 42.938c0-1.358.476-2.52 1.429-3.487.952-.967 2.132-1.451 3.54-1.451 1.45 0 2.65.484 3.602 1.45.953.968 1.429 2.13 1.429 3.488 0 1.4-.476 2.593-1.429 3.58-.952.988-2.153 1.482-3.602 1.482-1.408 0-2.588-.494-3.54-1.481-.953-.988-1.429-2.182-1.429-3.58z"/><path id="o" d="M177 21c0-1.358.476-2.53 1.429-3.519.952-.987 2.132-1.481 3.54-1.481 1.45 0 2.65.484 3.602 1.45.953.968 1.429 2.15 1.429 3.55 0 1.44-.476 2.634-1.429 3.58-.952.947-2.153 1.42-3.602 1.42-1.408 0-2.588-.473-3.54-1.42-.953-.946-1.429-2.14-1.429-3.58z"/><path id="p" d="M196 42.938c0-1.358.476-2.52 1.429-3.487.952-.967 2.132-1.451 3.54-1.451 1.45 0 2.65.484 3.602 1.45.953.968 1.429 2.13 1.429 3.488 0 1.4-.476 2.593-1.429 3.58-.952.988-2.153 1.482-3.602 1.482-1.408 0-2.588-.494-3.54-1.481-.953-.988-1.429-2.182-1.429-3.58z"/><path id="q" d="M196 21c0-1.358.476-2.53 1.429-3.519.952-.987 2.132-1.481 3.54-1.481 1.45 0 2.65.484 3.602 1.45.953.968 1.429 2.15 1.429 3.55 0 1.44-.476 2.634-1.429 3.58-.952.947-2.153 1.42-3.602 1.42-1.408 0-2.588-.473-3.54-1.42-.953-.946-1.429-2.14-1.429-3.58z"/><path id="r" d="M216 42.938c0-1.358.476-2.52 1.429-3.487.952-.967 2.132-1.451 3.54-1.451 1.45 0 2.65.484 3.602 1.45.953.968 1.429 2.13 1.429 3.488 0 1.4-.476 2.593-1.429 3.58-.952.988-2.153 1.482-3.602 1.482-1.408 0-2.588-.494-3.54-1.481-.953-.988-1.429-2.182-1.429-3.58z"/><path id="s" d="M216 21c0-1.358.476-2.53 1.429-3.519.952-.987 2.132-1.481 3.54-1.481 1.45 0 2.65.484 3.602 1.45.953.968 1.429 2.15 1.429 3.55 0 1.44-.476 2.634-1.429 3.58-.952.947-2.153 1.42-3.602 1.42-1.408 0-2.588-.473-3.54-1.42-.953-.946-1.429-2.14-1.429-3.58z"/><path id="t" d="M236 42.938c0-1.358.476-2.52 1.429-3.487.952-.967 2.132-1.451 3.54-1.451 1.45 0 2.65.484 3.602 1.45.953.968 1.429 2.13 1.429 3.488 0 1.4-.476 2.593-1.429 3.58-.952.988-2.153 1.482-3.602 1.482-1.408 0-2.588-.494-3.54-1.481-.953-.988-1.429-2.182-1.429-3.58z"/><path id="u" d="M236 21c0-1.358.476-2.53 1.429-3.519.952-.987 2.132-1.481 3.54-1.481 1.45 0 2.65.484 3.602 1.45.953.968 1.429 2.15 1.429 3.55 0 1.44-.476 2.634-1.429 3.58-.952.947-2.153 1.42-3.602 1.42-1.408 0-2.588-.473-3.54-1.42-.953-.946-1.429-2.14-1.429-3.58z"/><path id="v" d="M256 42.938c0-1.358.476-2.52 1.429-3.487.952-.967 2.132-1.451 3.54-1.451 1.45 0 2.65.484 3.602 1.45.953.968 1.429 2.13 1.429 3.488 0 1.4-.476 2.593-1.429 3.58-.952.988-2.153 1.482-3.602 1.482-1.408 0-2.588-.494-3.54-1.481-.953-.988-1.429-2.182-1.429-3.58z"/><path id="w" d="M256 21c0-1.358.476-2.53 1.429-3.519.952-.987 2.132-1.481 3.54-1.481 1.45 0 2.65.484 3.602 1.45.953.968 1.429 2.15 1.429 3.55 0 1.44-.476 2.634-1.429 3.58-.952.947-2.153 1.42-3.602 1.42-1.408 0-2.588-.473-3.54-1.42-.953-.946-1.429-2.14-1.429-3.58z"/><path id="x" d="M276 42.938c0-1.358.476-2.52 1.429-3.487.952-.967 2.132-1.451 3.54-1.451 1.45 0 2.65.484 3.602 1.45.953.968 1.429 2.13 1.429 3.488 0 1.4-.476 2.593-1.429 3.58-.952.988-2.153 1.482-3.602 1.482-1.408 0-2.588-.494-3.54-1.481-.953-.988-1.429-2.182-1.429-3.58z"/><path id="y" d="M276 21c0-1.358.476-2.53 1.429-3.519.952-.987 2.132-1.481 3.54-1.481 1.45 0 2.65.484 3.602 1.45.953.968 1.429 2.15 1.429 3.55 0 1.44-.476 2.634-1.429 3.58-.952.947-2.153 1.42-3.602 1.42-1.408 0-2.588-.473-3.54-1.42-.953-.946-1.429-2.14-1.429-3.58z"/><path id="z" d="M320 29.576v4.905L298.541 48 296 44.463l19.934-12.434L296 19.651 298.315 16z"/></defs><g fill="none" fill-rule="evenodd"><path fill="#ECEFF4" d="M60.19 146.205c-.007.021-2.733 8.2-5.07 13.136L34.45 202h-1.82L0 112.78h19.24l12.87 35.506c2.208 6.107 4.675 15.98 4.68 15.997.005-.02 2.603-10.02 5.46-15.997L59.28 112h1.82l17.29 36.286c2.857 5.976 5.454 15.974 5.46 15.997.006-.025 2.473-9.892 4.68-15.997l12.74-35.506h17.68L86.84 202h-1.82l-19.89-42.659c-2.337-4.936-4.934-13.117-4.94-13.136zM127 202l38.87-90h1.56l40.43 90h-19.11l-4.16-10.102h-35.88L144.55 202H127zm39.39-56.939c-.004.017-2.602 9.714-5.2 16.006l-6.37 15.481h23.27l-6.37-15.48c-2.598-6.293-5.326-15.992-5.33-16.007zm115.54 28.88L300.26 202H279.2l-14.56-22.765a34.36 34.36 0 0 1-5.2.397h-6.24V202H235v-90h24.44c24.7 0 39.52 12.044 39.52 34.015 0 14.03-6.11 22.897-17.03 27.926zm-28.73-10.456h5.72c14.82 0 21.32-4.764 21.32-17.47s-6.76-17.736-21.32-17.736h-5.72v35.206zm124.73 10.456L396.26 202H375.2l-14.56-22.765a34.36 34.36 0 0 1-5.2.397h-6.24V202H331v-90h24.44c24.7 0 39.52 12.044 39.52 34.015 0 14.03-6.11 22.897-17.03 27.926zm-28.73-10.456h5.72c14.82 0 21.32-4.764 21.32-17.47s-6.76-17.736-21.32-17.736h-5.72v35.206zM531 202c-25.057 0-45-19.083-45-45s19.943-45 45-45 45 19.083 45 45-19.943 45-45 45zm0-16.117c15.852 0 26.59-12.508 26.59-28.883s-10.738-28.883-26.59-28.883-26.59 12.508-26.59 28.883 10.738 28.883 26.59 28.883zm124.93-11.942L674.26 202H653.2l-14.56-22.765a34.36 34.36 0 0 1-5.2.397h-6.24V202H609v-90h24.44c24.7 0 39.52 12.044 39.52 34.015 0 14.03-6.11 22.897-17.03 27.926zm-28.73-10.456h5.72c14.82 0 21.32-4.764 21.32-17.47s-6.76-17.736-21.32-17.736h-5.72v35.206zM717.37 202c-10.864 0-17.169-5.64-20.37-12.447l11.058-6.71c2.134 3.793 4.074 7.002 8.73 7.002 4.462 0 7.275-1.75 7.275-8.558V135h13.58v46.482c0 14.1-8.245 20.518-20.273 20.518zm60.24 0c-12.546 0-20.653-5.96-24.61-13.746l11.002-6.344c2.895 4.71 6.66 8.17 13.318 8.17 5.598 0 9.169-2.787 9.169-6.632 0-4.614-3.668-6.249-9.844-8.94l-3.378-1.442c-9.747-4.133-16.214-9.324-16.214-20.283 0-10.093 7.721-17.783 19.785-17.783 8.59 0 14.766 2.98 19.205 10.766l-10.52 6.729c-2.316-4.133-4.825-5.768-8.685-5.768-3.957 0-6.466 2.5-6.466 5.768 0 4.037 2.509 5.671 8.3 8.17l3.377 1.443c11.485 4.902 17.951 9.9 17.951 21.147 0 12.112-9.554 18.745-22.39 18.745z"/><g transform="rotate(90 237 237)"><use fill="#EBEFF5" xlink:href="#a"/><use fill="#8FBCBB" xlink:href="#a"/><use fill="#EBEFF5" xlink:href="#b"/><use fill="#8FBCBB" xlink:href="#b"/><use fill="#EBEFF5" xlink:href="#c"/><use fill="#8FBCBB" xlink:href="#c"/><use fill="#EBEFF5" xlink:href="#d"/><use fill="#8FBCBB" xlink:href="#d"/><use fill="#EBEFF5" xlink:href="#e"/><use fill="#8FBCBB" xlink:href="#e"/><use fill="#EBEFF5" xlink:href="#f"/><use fill="#8FBCBB" xlink:href="#f"/><use fill="#EBEFF5" xlink:href="#g"/><use fill="#8FBCBB" xlink:href="#g"/><use fill="#EBEFF5" xlink:href="#h"/><use fill="#8FBCBB" xlink:href="#h"/><use fill="#EBEFF5" xlink:href="#i"/><use fill="#8FBCBB" xlink:href="#i"/><use fill="#EBEFF5" xlink:href="#j"/><use fill="#8FBCBB" xlink:href="#j"/><use fill="#EBEFF5" xlink:href="#k"/><use fill="#8FBCBB" xlink:href="#k"/><use fill="#EBEFF5" xlink:href="#l"/><use fill="#8FBCBB" xlink:href="#l"/><use fill="#EBEFF5" xlink:href="#m"/><use fill="#8FBCBB" xlink:href="#m"/><use fill="#EBEFF5" xlink:href="#n"/><use fill="#8FBCBB" xlink:href="#n"/><use fill="#EBEFF5" xlink:href="#o"/><use fill="#8FBCBB" xlink:href="#o"/><use fill="#EBEFF5" xlink:href="#p"/><use fill="#8FBCBB" xlink:href="#p"/><use fill="#EBEFF5" xlink:href="#q"/><use fill="#8FBCBB" xlink:href="#q"/><use fill="#EBEFF5" xlink:href="#r"/><use fill="#8FBCBB" xlink:href="#r"/><use fill="#EBEFF5" xlink:href="#s"/><use fill="#8FBCBB" xlink:href="#s"/><use fill="#EBEFF5" xlink:href="#t"/><use fill="#8FBCBB" xlink:href="#t"/><use fill="#EBEFF5" xlink:href="#u"/><use fill="#8FBCBB" xlink:href="#u"/><use fill="#EBEFF5" xlink:href="#v"/><use fill="#8FBCBB" xlink:href="#v"/><use fill="#EBEFF5" xlink:href="#w"/><use fill="#8FBCBB" xlink:href="#w"/><use fill="#EBEFF5" xlink:href="#x"/><use fill="#8FBCBB" xlink:href="#x"/><use fill="#EBEFF5" xlink:href="#y"/><use fill="#8FBCBB" xlink:href="#y"/><use fill="#EBEFF5" xlink:href="#z"/><use fill="#8FBCBB" xlink:href="#z"/></g></g></svg>