<svg xmlns="http://www.w3.org/2000/svg" width="800" height="90" viewBox="0 0 800 90"><path d="M60.19 34.205c-.007.021-2.733 8.2-5.07 13.136L34.45 90h-1.82L0 .78h19.24l12.87 35.506c2.208 6.107 4.675 15.98 4.68 15.997.005-.02 2.603-10.02 5.46-15.997L59.28 0h1.82l17.29 36.286c2.857 5.976 5.454 15.974 5.46 15.997.006-.025 2.473-9.892 4.68-15.997L101.27.78h17.68L86.84 90h-1.82L65.13 47.341c-2.337-4.936-4.934-13.117-4.94-13.136zM127 90l38.87-90h1.56l40.43 90h-19.11l-4.16-10.102h-35.88L144.55 90H127zm39.39-56.939c-.004.017-2.602 9.714-5.2 16.006l-6.37 15.481h23.27l-6.37-15.48c-2.598-6.293-5.326-15.992-5.33-16.007zm115.54 28.88L300.26 90H279.2l-14.56-22.765a34.36 34.36 0 0 1-5.2.397h-6.24V90H235V0h24.44c24.7 0 39.52 12.044 39.52 34.015 0 14.03-6.11 22.897-17.03 27.926zM253.2 51.485h5.72c14.82 0 21.32-4.764 21.32-17.47s-6.76-17.736-21.32-17.736h-5.72v35.206zm124.73 10.456L396.26 90H375.2l-14.56-22.765a34.36 34.36 0 0 1-5.2.397h-6.24V90H331V0h24.44c24.7 0 39.52 12.044 39.52 34.015 0 14.03-6.11 22.897-17.03 27.926zM349.2 51.485h5.72c14.82 0 21.32-4.764 21.32-17.47s-6.76-17.736-21.32-17.736h-5.72v35.206zM432 90V0h18.529v90zm99 0c-25.057 0-45-19.083-45-45s19.943-45 45-45 45 19.083 45 45-19.943 45-45 45zm0-16.117c15.852 0 26.59-12.508 26.59-28.883S546.853 16.117 531 16.117 504.41 28.625 504.41 45 515.147 73.883 531 73.883zM655.93 61.94L674.26 90H653.2l-14.56-22.765a34.36 34.36 0 0 1-5.2.397h-6.24V90H609V0h24.44c24.7 0 39.52 12.044 39.52 34.015 0 14.03-6.11 22.897-17.03 27.926zM627.2 51.485h5.72c14.82 0 21.32-4.764 21.32-17.47s-6.76-17.736-21.32-17.736h-5.72v35.206zM717.37 90c-10.864 0-17.169-5.64-20.37-12.447l11.058-6.71c2.134 3.793 4.074 7.002 8.73 7.002 4.462 0 7.275-1.75 7.275-8.558V23h13.58v46.482c0 14.1-8.245 20.518-20.273 20.518zm60.24 0c-12.546 0-20.653-5.96-24.61-13.746l11.002-6.344c2.895 4.71 6.66 8.17 13.318 8.17 5.598 0 9.169-2.787 9.169-6.632 0-4.614-3.668-6.249-9.844-8.94l-3.378-1.442c-9.747-4.133-16.214-9.324-16.214-20.283 0-10.093 7.721-17.783 19.785-17.783 8.59 0 14.766 2.98 19.205 10.766l-10.52 6.729c-2.316-4.133-4.825-5.768-8.685-5.768-3.957 0-6.466 2.5-6.466 5.768 0 4.037 2.509 5.671 8.3 8.17l3.377 1.443C793.534 55.01 800 60.008 800 71.255 800 83.367 790.446 90 777.61 90z" fill="#ECEFF4" fill-rule="evenodd"/></svg>